<?xml version="1.0" standalone="no"?><svg xmlns:xlink="http://www.w3.org/1999/xlink" xmlns="http://www.w3.org/2000/svg" viewBox="0 0 1920 1152" preserveAspectRatio="xMaxYMax slice"><g transform="scale(3.226890756302521)"><rect x="0" y="0" width="595" height="357" fill="#121212"/><path d="M 357 59.5 A 59.5 59.5 0 0 1  416.5 119 L 357 59.5 A 59.5 59.5 0 0 0 416.5 119" fill="#965168"/><path d="M 59.5 119 A 59.5 59.5 0 0 1  119 178.5 L 59.5 119 A 59.5 59.5 0 0 0 119 178.5" fill="#19d2bc"/><path d="M 119 178.5 A 59.5 59.5 0 0 1  178.5 119 L 119 178.5 A 59.5 59.5 0 0 0 178.5 119" fill="#156158"/><rect x="178.5" y="119" width="59.5" height="59.5" fill="#121212"/><path d="M 178.5 119 A 29.75 29.75 0 0 1  208.25 148.75 L 178.5 119 A 29.75 29.75 0 0 0 208.25 148.75" fill="#132624"/><path d="M 208.25 148.75 A 29.75 29.75 0 0 1  238 119 L 208.25 148.75 A 29.75 29.75 0 0 0 238 119" fill="#f17da4"/><path d="M 178.5 178.5 A 29.75 29.75 0 0 1  208.25 148.75 L 178.5 178.5 A 29.75 29.75 0 0 0 208.25 148.75" fill="#a1566f"/><path d="M 297.5 119 A 59.5 59.5 0 0 1  357 178.5 L 297.5 119 A 59.5 59.5 0 0 0 357 178.5" fill="#168d7f"/><path d="M 0 238 A 59.5 59.5 0 0 1  59.5 178.5 L 0 238 A 59.5 59.5 0 0 0 59.5 178.5" fill="#18bca9"/><rect x="59.5" y="178.5" width="59.5" height="59.5" fill="#121212"/><path d="M 59.5 178.5 A 29.75 29.75 0 0 1  89.25 208.25 L 59.5 178.5 A 29.75 29.75 0 0 0 89.25 208.25" fill="#1ae2ca"/><path d="M 89.25 208.25 A 29.75 29.75 0 0 1  119 178.5 L 89.25 208.25 A 29.75 29.75 0 0 0 119 178.5" fill="#ce6c8d"/><path d="M 59.5 208.25 A 29.75 29.75 0 0 1  89.25 238 L 59.5 208.25 A 29.75 29.75 0 0 0 89.25 238" fill="#2a1e22"/><path d="M 89.25 208.25 A 29.75 29.75 0 0 1  119 238 L 89.25 208.25 A 29.75 29.75 0 0 0 119 238" fill="#144943"/><rect x="178.5" y="178.5" width="59.5" height="59.5" fill="#121212"/><path d="M 178.5 208.25 A 29.75 29.75 0 0 1  208.25 178.5 L 178.5 208.25 A 29.75 29.75 0 0 0 208.25 178.5" fill="#18b8a5"/><path d="M 208.25 178.5 A 29.75 29.75 0 0 1  238 208.25 L 208.25 178.5 A 29.75 29.75 0 0 0 238 208.25" fill="#168578"/><path d="M 178.5 208.25 A 29.75 29.75 0 0 1  208.25 238 L 178.5 208.25 A 29.75 29.75 0 0 0 208.25 238" fill="#d77093"/><path d="M 208.25 208.25 A 29.75 29.75 0 0 1  238 238 L 208.25 208.25 A 29.75 29.75 0 0 0 238 238" fill="#1ae5cd"/><rect x="238" y="178.5" width="59.5" height="59.5" fill="#121212"/><path d="M 238 208.25 A 29.75 29.75 0 0 1  267.75 178.5 L 238 208.25 A 29.75 29.75 0 0 0 267.75 178.5" fill="#121918"/><path d="M 238 238 A 29.75 29.75 0 0 1  267.75 208.25 L 238 238 A 29.75 29.75 0 0 0 267.75 208.25" fill="#1aebd3"/><rect x="297.5" y="178.5" width="59.5" height="59.5" fill="#121212"/><path d="M 297.5 178.5 A 29.75 29.75 0 0 1  327.25 208.25 L 297.5 178.5 A 29.75 29.75 0 0 0 327.25 208.25" fill="#291d21"/><path d="M 327.25 178.5 A 29.75 29.75 0 0 1  357 208.25 L 327.25 178.5 A 29.75 29.75 0 0 0 357 208.25" fill="#178f81"/><path d="M 416.5 238 A 59.5 59.5 0 0 1  476 178.5 L 416.5 238 A 59.5 59.5 0 0 0 476 178.5" fill="#132220"/><rect x="0" y="238" width="59.5" height="59.5" fill="#121212"/><path d="M 0 238 A 29.75 29.75 0 0 1  29.75 267.75 L 0 238 A 29.75 29.75 0 0 0 29.75 267.75" fill="#9d556d"/><path d="M 0 267.75 A 29.75 29.75 0 0 1  29.75 297.5 L 0 267.75 A 29.75 29.75 0 0 0 29.75 297.5" fill="#a35771"/><path d="M 29.75 297.5 A 29.75 29.75 0 0 1  59.5 267.75 L 29.75 297.5 A 29.75 29.75 0 0 0 59.5 267.75" fill="#965169"/><rect x="59.5" y="238" width="59.5" height="59.5" fill="#121212"/><path d="M 59.5 238 A 29.75 29.75 0 0 1  89.25 267.75 L 59.5 238 A 29.75 29.75 0 0 0 89.25 267.75" fill="#156f65"/><path d="M 89.25 267.75 A 29.75 29.75 0 0 1  119 238 L 89.25 267.75 A 29.75 29.75 0 0 0 119 238" fill="#167b6f"/><path d="M 59.5 267.75 A 29.75 29.75 0 0 1  89.25 297.5 L 59.5 267.75 A 29.75 29.75 0 0 0 89.25 297.5" fill="#16766b"/><path d="M 89.25 267.75 A 29.75 29.75 0 0 1  119 297.5 L 89.25 267.75 A 29.75 29.75 0 0 0 119 297.5" fill="#179485"/><rect x="119" y="238" width="59.5" height="59.5" fill="#121212"/><path d="M 148.75 267.75 A 29.75 29.75 0 0 1  178.5 238 L 148.75 267.75 A 29.75 29.75 0 0 0 178.5 238" fill="#332227"/><path d="M 119 297.5 A 29.75 29.75 0 0 1  148.75 267.75 L 119 297.5 A 29.75 29.75 0 0 0 148.75 267.75" fill="#a0566f"/><path d="M 148.75 297.5 A 29.75 29.75 0 0 1  178.5 267.75 L 148.75 297.5 A 29.75 29.75 0 0 0 178.5 267.75" fill="#18b2a0"/><path d="M 178.5 297.5 A 59.5 59.5 0 0 1  238 238 L 178.5 297.5 A 59.5 59.5 0 0 0 238 238" fill="#e6779d"/><path d="M 238 297.5 A 59.5 59.5 0 0 1  297.5 238 L 238 297.5 A 59.5 59.5 0 0 0 297.5 238" fill="#2b1e22"/><rect x="297.5" y="238" width="59.5" height="59.5" fill="#121212"/><path d="M 327.25 267.75 A 29.75 29.75 0 0 1  357 238 L 327.25 267.75 A 29.75 29.75 0 0 0 357 238" fill="#b5607d"/><path d="M 327.25 297.5 A 29.75 29.75 0 0 1  357 267.75 L 327.25 297.5 A 29.75 29.75 0 0 0 357 267.75" fill="#221a1d"/><path d="M 357 238 A 59.5 59.5 0 0 1  416.5 297.5 L 357 238 A 59.5 59.5 0 0 0 416.5 297.5" fill="#502f3a"/><rect x="416.5" y="238" width="59.5" height="59.5" fill="#121212"/><path d="M 416.5 267.75 A 29.75 29.75 0 0 1  446.25 238 L 416.5 267.75 A 29.75 29.75 0 0 0 446.25 238" fill="#155951"/><path d="M 446.25 267.75 A 29.75 29.75 0 0 1  476 238 L 446.25 267.75 A 29.75 29.75 0 0 0 476 238" fill="#132a27"/><path d="M 416.5 297.5 A 29.75 29.75 0 0 1  446.25 267.75 L 416.5 297.5 A 29.75 29.75 0 0 0 446.25 267.75" fill="#e7789d"/><path d="M 446.25 267.75 A 29.75 29.75 0 0 1  476 297.5 L 446.25 267.75 A 29.75 29.75 0 0 0 476 297.5" fill="#16897b"/><path d="M 476 238 A 59.5 59.5 0 0 1  535.5 297.5 L 476 238 A 59.5 59.5 0 0 0 535.5 297.5" fill="#1aecd3"/><rect x="535.5" y="238" width="59.5" height="59.5" fill="#121212"/><path d="M 535.5 267.75 A 29.75 29.75 0 0 1  565.25 238 L 535.5 267.75 A 29.75 29.75 0 0 0 565.25 238" fill="#132523"/><path d="M 565.25 238 A 29.75 29.75 0 0 1  595 267.75 L 565.25 238 A 29.75 29.75 0 0 0 595 267.75" fill="#1a1617"/><path d="M 535.5 297.5 A 29.75 29.75 0 0 1  565.25 267.75 L 535.5 297.5 A 29.75 29.75 0 0 0 565.25 267.75" fill="#f07ca3"/><rect x="0" y="297.5" width="59.5" height="59.5" fill="#121212"/><path d="M 0 327.25 A 29.75 29.75 0 0 1  29.75 297.5 L 0 327.25 A 29.75 29.75 0 0 0 29.75 297.5" fill="#b15e7a"/><path d="M 29.75 327.25 A 29.75 29.75 0 0 1  59.5 297.5 L 29.75 327.25 A 29.75 29.75 0 0 0 59.5 297.5" fill="#221a1c"/><path d="M 0 357 A 29.75 29.75 0 0 1  29.75 327.25 L 0 357 A 29.75 29.75 0 0 0 29.75 327.25" fill="#18ae9d"/><path d="M 29.75 357 A 29.75 29.75 0 0 1  59.5 327.25 L 29.75 357 A 29.75 29.75 0 0 0 59.5 327.25" fill="#168578"/><path d="M 59.5 357 A 59.5 59.5 0 0 1  119 297.5 L 59.5 357 A 59.5 59.5 0 0 0 119 297.5" fill="#9a536b"/><rect x="119" y="297.5" width="59.5" height="59.5" fill="#121212"/><path d="M 119 297.5 A 29.75 29.75 0 0 1  148.75 327.25 L 119 297.5 A 29.75 29.75 0 0 0 148.75 327.25" fill="#f47ea6"/><path d="M 148.75 327.25 A 29.75 29.75 0 0 1  178.5 297.5 L 148.75 327.25 A 29.75 29.75 0 0 0 178.5 297.5" fill="#9a536b"/><path d="M 119 357 A 29.75 29.75 0 0 1  148.75 327.25 L 119 357 A 29.75 29.75 0 0 0 148.75 327.25" fill="#13332f"/><path d="M 148.75 327.25 A 29.75 29.75 0 0 1  178.5 357 L 148.75 327.25 A 29.75 29.75 0 0 0 178.5 357" fill="#132926"/><rect x="178.5" y="297.5" width="59.5" height="59.5" fill="#121212"/><path d="M 178.5 327.25 A 29.75 29.75 0 0 1  208.25 297.5 L 178.5 327.25 A 29.75 29.75 0 0 0 208.25 297.5" fill="#b05e79"/><path d="M 208.25 297.5 A 29.75 29.75 0 0 1  238 327.25 L 208.25 297.5 A 29.75 29.75 0 0 0 238 327.25" fill="#18ad9c"/><path d="M 178.5 327.25 A 29.75 29.75 0 0 1  208.25 357 L 178.5 327.25 A 29.75 29.75 0 0 0 208.25 357" fill="#80475a"/><path d="M 208.25 327.25 A 29.75 29.75 0 0 1  238 357 L 208.25 327.25 A 29.75 29.75 0 0 0 238 357" fill="#a35871"/><rect x="238" y="297.5" width="59.5" height="59.5" fill="#121212"/><path d="M 238 297.5 A 29.75 29.75 0 0 1  267.75 327.25 L 238 297.5 A 29.75 29.75 0 0 0 267.75 327.25" fill="#613846"/><path d="M 267.75 297.5 A 29.75 29.75 0 0 1  297.5 327.25 L 267.75 297.5 A 29.75 29.75 0 0 0 297.5 327.25" fill="#143f3a"/><path d="M 238 327.25 A 29.75 29.75 0 0 1  267.75 357 L 238 327.25 A 29.75 29.75 0 0 0 267.75 357" fill="#179485"/><path d="M 267.75 327.25 A 29.75 29.75 0 0 1  297.5 357 L 267.75 327.25 A 29.75 29.75 0 0 0 297.5 357" fill="#18c2ae"/><rect x="297.5" y="297.5" width="59.5" height="59.5" fill="#121212"/><path d="M 297.5 297.5 A 29.75 29.75 0 0 1  327.25 327.25 L 297.5 297.5 A 29.75 29.75 0 0 0 327.25 327.25" fill="#bb6381"/><path d="M 327.25 327.25 A 29.75 29.75 0 0 1  357 297.5 L 327.25 327.25 A 29.75 29.75 0 0 0 357 297.5" fill="#e17599"/><path d="M 297.5 357 A 29.75 29.75 0 0 1  327.25 327.25 L 297.5 357 A 29.75 29.75 0 0 0 327.25 327.25" fill="#492c36"/><path d="M 327.25 327.25 A 29.75 29.75 0 0 1  357 357 L 327.25 327.25 A 29.75 29.75 0 0 0 357 357" fill="#3e272f"/><path d="M 357 297.5 A 59.5 59.5 0 0 1  416.5 357 L 357 297.5 A 59.5 59.5 0 0 0 416.5 357" fill="#50303b"/><rect x="416.5" y="297.5" width="59.5" height="59.5" fill="#121212"/><path d="M 416.5 297.5 A 29.75 29.75 0 0 1  446.25 327.25 L 416.5 297.5 A 29.75 29.75 0 0 0 446.25 327.25" fill="#17a393"/><path d="M 446.25 327.25 A 29.75 29.75 0 0 1  476 297.5 L 446.25 327.25 A 29.75 29.75 0 0 0 476 297.5" fill="#155f56"/><path d="M 416.5 327.25 A 29.75 29.75 0 0 1  446.25 357 L 416.5 327.25 A 29.75 29.75 0 0 0 446.25 357" fill="#7f4659"/><path d="M 446.25 327.25 A 29.75 29.75 0 0 1  476 357 L 446.25 327.25 A 29.75 29.75 0 0 0 476 357" fill="#179183"/><path d="M 476 357 A 59.5 59.5 0 0 1  535.5 297.5 L 476 357 A 59.5 59.5 0 0 0 535.5 297.5" fill="#15645b"/><rect x="535.5" y="297.5" width="59.5" height="59.5" fill="#121212"/><path d="M 535.5 297.5 A 29.75 29.75 0 0 1  565.25 327.25 L 535.5 297.5 A 29.75 29.75 0 0 0 565.25 327.25" fill="#18bca9"/><path d="M 565.25 297.5 A 29.75 29.75 0 0 1  595 327.25 L 565.25 297.5 A 29.75 29.75 0 0 0 595 327.25" fill="#1ae1ca"/><path d="M 535.5 357 A 29.75 29.75 0 0 1  565.25 327.25 L 535.5 357 A 29.75 29.75 0 0 0 565.25 327.25" fill="#121f1e"/><path d="M 565.25 327.25 A 29.75 29.75 0 0 1  595 357 L 565.25 327.25 A 29.75 29.75 0 0 0 595 357" fill="#14413c"/></g></svg>